<svg width="136" height="136" viewBox="0 0 136 136" fill="none" xmlns="http://www.w3.org/2000/svg">
<g clip-path="url(#clip0_1_1721)">
<path fill-rule="evenodd" clip-rule="evenodd" d="M80.1898 58.8435C82.5043 57.3742 84.1977 55.1318 84.9117 51.957C87.1199 42.1358 82.3956 35.051 74.806 30.2438C63.7237 23.2248 46.4541 21.1428 36.6122 22.3806C36.146 22.4387 35.8168 22.8646 35.876 23.3289C35.9341 23.7951 36.3589 24.126 36.8251 24.0679C46.3775 22.8658 63.1415 24.869 73.8975 31.6802C80.8661 36.0945 85.2814 42.5641 83.2519 51.5845C82.6499 54.2695 81.2145 56.1571 79.2607 57.4044C78.4259 56.1401 77.5664 54.9161 76.683 53.7353C74.2436 50.4763 66.4344 43.2988 59.3521 40.44C54.2711 38.3907 49.5698 38.5598 47.1243 43.2669C45.7656 45.8836 46.3387 48.6384 48.2624 51.1949C50.9051 54.7111 56.189 57.8684 61.9575 59.6194C66.76 61.0781 71.8878 61.5645 76.0748 60.5439C76.9946 60.3178 77.8712 60.0235 78.6906 59.651C89.9351 77.4046 95.9429 102.142 92.9849 122.489C92.9192 122.953 93.2389 123.385 93.7047 123.452C94.1693 123.521 94.6007 123.198 94.6682 122.735C97.6729 102.056 91.5962 76.9246 80.1898 58.8435ZM77.7504 58.2008C76.9632 57.0144 76.1534 55.8646 75.3217 54.7541C72.9831 51.6319 65.502 44.7562 58.7161 42.0175C54.5519 40.3362 50.6367 40.193 48.6322 44.0507C47.5808 46.0774 48.1328 48.1928 49.62 50.1739C51.2582 52.3516 54.0002 54.356 57.2295 55.9412C62.1322 58.3479 68.1599 59.7815 73.2598 59.2911C74.8755 59.1366 76.3969 58.785 77.7504 58.2008Z" fill="white"/>
<path fill-rule="evenodd" clip-rule="evenodd" d="M76.0083 95.7127C83.9229 102.054 90.0678 112.927 93.1028 122.658C93.2424 123.106 93.7196 123.355 94.1671 123.216C94.6147 123.076 94.8662 122.6 94.7267 122.152C91.5979 112.116 85.2304 100.924 77.0715 94.3865C76.7066 94.0937 76.1711 94.1527 75.8772 94.5195C75.5843 94.8845 75.6433 95.4198 76.0083 95.7127Z" fill="white"/>
<path fill-rule="evenodd" clip-rule="evenodd" d="M94.9366 122.144C94.8265 113.701 99.7693 103.582 105.598 97.4388C105.921 97.0982 105.908 96.559 105.567 96.2373C105.226 95.9137 104.689 95.9275 104.365 96.2681C98.2596 102.704 93.1219 113.321 93.2372 122.166C93.2424 122.635 93.6297 123.011 94.0985 123.006C94.5683 122.999 94.9437 122.613 94.9366 122.144Z" fill="white"/>
</g>
<defs>
<clipPath id="clip0_1_1721">
<rect width="99.9704" height="99.9704" fill="white" transform="translate(135.891 48.4404) rotate(118.983)"/>
</clipPath>
</defs>
</svg>
